<mxfile host="app.diagrams.net" agent="Mozilla/5.0 (X11; Linux x86_64; rv:138.0) Gecko/20100101 Firefox/138.0" version="27.1.4">
  <diagram id="prtHgNgQTEPvFCAcTncT" name="Page-1">
    <mxGraphModel grid="1" page="1" gridSize="10" guides="1" tooltips="1" connect="1" arrows="1" fold="1" pageScale="1" pageWidth="827" pageHeight="1169" math="0" shadow="0">
      <root>
        <mxCell id="0" />
        <mxCell id="1" parent="0" />
        <mxCell id="ZOLT3zwWpUyua53DlOfI-27" value="Usuário" style="text;html=1;align=center;verticalAlign=middle;whiteSpace=wrap;rounded=0;rotation=0;fontStyle=1;container=0;strokeWidth=2;" vertex="1" parent="1">
          <mxGeometry x="222.25" y="108.25" width="60" height="20" as="geometry" />
        </mxCell>
        <mxCell id="ZOLT3zwWpUyua53DlOfI-29" style="edgeStyle=orthogonalEdgeStyle;rounded=0;orthogonalLoop=1;jettySize=auto;html=1;exitX=0.5;exitY=1;exitDx=0;exitDy=0;entryX=0.5;entryY=0;entryDx=0;entryDy=0;fontSize=12;startSize=8;endSize=8;strokeWidth=2;endArrow=open;endFill=0;" edge="1" parent="1" source="ZOLT3zwWpUyua53DlOfI-28" target="ZOLT3zwWpUyua53DlOfI-25">
          <mxGeometry relative="1" as="geometry" />
        </mxCell>
        <mxCell id="ZOLT3zwWpUyua53DlOfI-28" value="" style="ellipse;html=1;shape=startState;fillColor=light-dark(#000000,#000000);strokeColor=none;strokeWidth=2;fontStyle=1;container=0;" vertex="1" parent="1">
          <mxGeometry x="235" y="128.25" width="30" height="30" as="geometry" />
        </mxCell>
        <mxCell id="nBnGAEbZcAZ4ocF5KPbq-3" value="" style="ellipse;html=1;shape=endState;fillColor=light-dark(#000000,#000000);strokeColor=default;strokeWidth=2;fontStyle=1;container=0;" vertex="1" parent="1">
          <mxGeometry x="133" y="470" width="30" height="30" as="geometry" />
        </mxCell>
        <mxCell id="BD446DF0MScjFqqRYx8H-1" style="edgeStyle=orthogonalEdgeStyle;rounded=0;orthogonalLoop=1;jettySize=auto;html=1;entryX=0.5;entryY=0;entryDx=0;entryDy=0;strokeWidth=2;endArrow=open;endFill=0;" edge="1" parent="1" source="JDLLx60_Cy0iMEz0_Sig-8" target="JDLLx60_Cy0iMEz0_Sig-6">
          <mxGeometry relative="1" as="geometry" />
        </mxCell>
        <mxCell id="JDLLx60_Cy0iMEz0_Sig-8" value="FIltrar lista" style="rounded=1;whiteSpace=wrap;html=1;arcSize=40;fontStyle=1;strokeWidth=2;rotation=0;container=0;" vertex="1" parent="1">
          <mxGeometry x="190" y="260" width="120" height="40" as="geometry" />
        </mxCell>
        <mxCell id="BD446DF0MScjFqqRYx8H-3" style="edgeStyle=orthogonalEdgeStyle;rounded=0;orthogonalLoop=1;jettySize=auto;html=1;entryX=0.5;entryY=0;entryDx=0;entryDy=0;strokeWidth=2;endArrow=open;endFill=0;" edge="1" parent="1" source="JDLLx60_Cy0iMEz0_Sig-6" target="mxtANP7VA7hPZhCvdDns-1">
          <mxGeometry relative="1" as="geometry" />
        </mxCell>
        <mxCell id="JDLLx60_Cy0iMEz0_Sig-6" value="" style="rhombus;whiteSpace=wrap;html=1;fontStyle=1;strokeWidth=2;container=0;" vertex="1" parent="1">
          <mxGeometry x="227.5" y="330" width="45" height="40" as="geometry" />
        </mxCell>
        <mxCell id="ZOLT3zwWpUyua53DlOfI-25" value="Clicar em histórico" style="rounded=1;whiteSpace=wrap;html=1;arcSize=40;fontStyle=1;strokeWidth=2;rotation=0;container=0;" vertex="1" parent="1">
          <mxGeometry x="190" y="180" width="120" height="40" as="geometry" />
        </mxCell>
        <mxCell id="ZOLT3zwWpUyua53DlOfI-24" value="" style="swimlane;startSize=0;fontStyle=1;strokeWidth=2;rotation=90;container=0;" vertex="1" parent="1">
          <mxGeometry x="-83.08" y="283.09" width="670.68" height="307.5" as="geometry">
            <mxRectangle x="361" y="106.5" width="50" height="40" as="alternateBounds" />
          </mxGeometry>
        </mxCell>
        <mxCell id="ZOLT3zwWpUyua53DlOfI-30" value="" style="swimlane;startSize=0;fontStyle=1;strokeWidth=2;rotation=90;container=0;" vertex="1" parent="1">
          <mxGeometry x="213.75" y="293.25" width="673.5" height="290" as="geometry" />
        </mxCell>
        <mxCell id="ZOLT3zwWpUyua53DlOfI-36" style="edgeStyle=orthogonalEdgeStyle;rounded=0;orthogonalLoop=1;jettySize=auto;html=1;exitX=1;exitY=0.5;exitDx=0;exitDy=0;entryX=0;entryY=0.5;entryDx=0;entryDy=0;fontSize=12;startSize=8;endSize=8;strokeWidth=2;endArrow=open;endFill=0;" edge="1" parent="1" source="ZOLT3zwWpUyua53DlOfI-25" target="ZOLT3zwWpUyua53DlOfI-26">
          <mxGeometry relative="1" as="geometry">
            <Array as="points">
              <mxPoint x="420" y="200" />
              <mxPoint x="420" y="170" />
            </Array>
          </mxGeometry>
        </mxCell>
        <mxCell id="ZOLT3zwWpUyua53DlOfI-42" style="edgeStyle=orthogonalEdgeStyle;rounded=0;orthogonalLoop=1;jettySize=auto;html=1;exitX=0;exitY=0.5;exitDx=0;exitDy=0;entryX=0.5;entryY=0;entryDx=0;entryDy=0;fontSize=12;startSize=8;endSize=8;strokeWidth=2;endArrow=open;endFill=0;" edge="1" parent="1" source="ZOLT3zwWpUyua53DlOfI-37" target="JDLLx60_Cy0iMEz0_Sig-8">
          <mxGeometry relative="1" as="geometry">
            <mxPoint x="253" y="266.25" as="targetPoint" />
          </mxGeometry>
        </mxCell>
        <mxCell id="ZOLT3zwWpUyua53DlOfI-44" style="edgeStyle=orthogonalEdgeStyle;rounded=0;orthogonalLoop=1;jettySize=auto;html=1;entryX=0;entryY=0.5;entryDx=0;entryDy=0;fontSize=12;startSize=8;endSize=8;exitX=1;exitY=0.5;exitDx=0;exitDy=0;strokeWidth=2;endArrow=open;endFill=0;" edge="1" parent="1" source="JDLLx60_Cy0iMEz0_Sig-6" target="ZOLT3zwWpUyua53DlOfI-43">
          <mxGeometry relative="1" as="geometry">
            <mxPoint x="420" y="320" as="sourcePoint" />
          </mxGeometry>
        </mxCell>
        <mxCell id="ZOLT3zwWpUyua53DlOfI-38" style="edgeStyle=orthogonalEdgeStyle;rounded=0;orthogonalLoop=1;jettySize=auto;html=1;exitX=0.5;exitY=1;exitDx=0;exitDy=0;entryX=0.5;entryY=0;entryDx=0;entryDy=0;fontSize=12;startSize=8;endSize=8;strokeWidth=2;endArrow=open;endFill=0;" edge="1" parent="1" source="ZOLT3zwWpUyua53DlOfI-26" target="ZOLT3zwWpUyua53DlOfI-37">
          <mxGeometry relative="1" as="geometry" />
        </mxCell>
        <mxCell id="ZOLT3zwWpUyua53DlOfI-26" value="Consultar banco de dados" style="rounded=1;whiteSpace=wrap;html=1;arcSize=40;fontStyle=1;strokeWidth=2;rotation=0;container=0;" vertex="1" parent="1">
          <mxGeometry x="495.5" y="150" width="106" height="40" as="geometry" />
        </mxCell>
        <mxCell id="ZOLT3zwWpUyua53DlOfI-37" value="Exibir compras " style="rounded=1;whiteSpace=wrap;html=1;arcSize=40;fontStyle=1;strokeWidth=2;rotation=0;container=0;" vertex="1" parent="1">
          <mxGeometry x="501.25" y="220" width="94.5" height="40" as="geometry" />
        </mxCell>
        <mxCell id="ZOLT3zwWpUyua53DlOfI-52" style="edgeStyle=orthogonalEdgeStyle;rounded=0;orthogonalLoop=1;jettySize=auto;html=1;exitX=0.5;exitY=1;exitDx=0;exitDy=0;fontSize=12;startSize=8;endSize=8;strokeWidth=2;endArrow=open;endFill=0;" edge="1" parent="1" source="ZOLT3zwWpUyua53DlOfI-43" target="ZOLT3zwWpUyua53DlOfI-51">
          <mxGeometry relative="1" as="geometry" />
        </mxCell>
        <mxCell id="ZOLT3zwWpUyua53DlOfI-43" value="Aplicar filtro" style="rounded=1;whiteSpace=wrap;html=1;arcSize=40;fontStyle=1;strokeWidth=2;rotation=0;container=0;" vertex="1" parent="1">
          <mxGeometry x="495.5" y="310" width="106" height="40" as="geometry" />
        </mxCell>
        <mxCell id="mxtANP7VA7hPZhCvdDns-9" style="edgeStyle=orthogonalEdgeStyle;rounded=0;orthogonalLoop=1;jettySize=auto;html=1;exitX=0;exitY=0.5;exitDx=0;exitDy=0;entryX=1;entryY=0.5;entryDx=0;entryDy=0;strokeWidth=2;endArrow=open;endFill=0;" edge="1" parent="1" source="ZOLT3zwWpUyua53DlOfI-51" target="mxtANP7VA7hPZhCvdDns-1">
          <mxGeometry relative="1" as="geometry">
            <Array as="points">
              <mxPoint x="390" y="410" />
              <mxPoint x="390" y="420" />
            </Array>
          </mxGeometry>
        </mxCell>
        <mxCell id="ZOLT3zwWpUyua53DlOfI-51" value="Exibir compras filtradas " style="rounded=1;whiteSpace=wrap;html=1;arcSize=40;fontStyle=1;strokeWidth=2;rotation=0;container=0;" vertex="1" parent="1">
          <mxGeometry x="493.5" y="390" width="110" height="40" as="geometry" />
        </mxCell>
        <mxCell id="mxtANP7VA7hPZhCvdDns-8" style="edgeStyle=orthogonalEdgeStyle;rounded=0;orthogonalLoop=1;jettySize=auto;html=1;exitX=0.5;exitY=1;exitDx=0;exitDy=0;entryX=0.5;entryY=0;entryDx=0;entryDy=0;strokeWidth=2;endArrow=open;endFill=0;" edge="1" parent="1" source="ZOLT3zwWpUyua53DlOfI-56" target="mxtANP7VA7hPZhCvdDns-7">
          <mxGeometry relative="1" as="geometry" />
        </mxCell>
        <mxCell id="ZOLT3zwWpUyua53DlOfI-56" value="Exibir detalhes" style="rounded=1;whiteSpace=wrap;html=1;arcSize=40;fontStyle=1;strokeWidth=2;rotation=0;container=0;" vertex="1" parent="1">
          <mxGeometry x="495.5" y="465" width="110" height="40" as="geometry" />
        </mxCell>
        <mxCell id="0nQu52ruB7skGAWhfwH7-63" value="Ver histórico de compras" style="shape=umlFrame;whiteSpace=wrap;html=1;pointerEvents=0;width=170;height=30;strokeWidth=2;fontStyle=1" vertex="1" parent="1">
          <mxGeometry x="60" y="50" width="670" height="750" as="geometry" />
        </mxCell>
        <mxCell id="ZOLT3zwWpUyua53DlOfI-31" value="Sistema" style="text;html=1;align=center;verticalAlign=middle;whiteSpace=wrap;rounded=0;rotation=0;fontStyle=1;container=0;strokeWidth=2;" vertex="1" parent="1">
          <mxGeometry x="510" y="109" width="60" height="20" as="geometry" />
        </mxCell>
        <mxCell id="BD446DF0MScjFqqRYx8H-6" style="edgeStyle=orthogonalEdgeStyle;rounded=0;orthogonalLoop=1;jettySize=auto;html=1;entryX=0.5;entryY=0;entryDx=0;entryDy=0;strokeWidth=2;endArrow=open;endFill=0;" edge="1" parent="1" source="mxtANP7VA7hPZhCvdDns-1" target="mxtANP7VA7hPZhCvdDns-4">
          <mxGeometry relative="1" as="geometry" />
        </mxCell>
        <mxCell id="mxtANP7VA7hPZhCvdDns-1" value="Ver detalhes" style="rounded=1;whiteSpace=wrap;html=1;arcSize=40;fontStyle=1;strokeWidth=2;rotation=0;container=0;" vertex="1" parent="1">
          <mxGeometry x="190" y="400" width="120" height="40" as="geometry" />
        </mxCell>
        <mxCell id="mxtANP7VA7hPZhCvdDns-6" style="edgeStyle=orthogonalEdgeStyle;rounded=0;orthogonalLoop=1;jettySize=auto;html=1;exitX=1;exitY=0.5;exitDx=0;exitDy=0;entryX=0;entryY=0.5;entryDx=0;entryDy=0;strokeWidth=2;endArrow=open;endFill=0;" edge="1" parent="1" source="mxtANP7VA7hPZhCvdDns-4" target="ZOLT3zwWpUyua53DlOfI-56">
          <mxGeometry relative="1" as="geometry">
            <mxPoint x="473" y="480" as="targetPoint" />
          </mxGeometry>
        </mxCell>
        <mxCell id="BD446DF0MScjFqqRYx8H-9" style="edgeStyle=orthogonalEdgeStyle;rounded=0;orthogonalLoop=1;jettySize=auto;html=1;entryX=1;entryY=0.5;entryDx=0;entryDy=0;strokeWidth=2;endArrow=open;endFill=0;" edge="1" parent="1" source="mxtANP7VA7hPZhCvdDns-4" target="nBnGAEbZcAZ4ocF5KPbq-3">
          <mxGeometry relative="1" as="geometry" />
        </mxCell>
        <mxCell id="mxtANP7VA7hPZhCvdDns-4" value="" style="rhombus;whiteSpace=wrap;html=1;fontStyle=1;strokeWidth=2;container=0;" vertex="1" parent="1">
          <mxGeometry x="227.5" y="465" width="45" height="40" as="geometry" />
        </mxCell>
        <mxCell id="mxtANP7VA7hPZhCvdDns-11" style="edgeStyle=orthogonalEdgeStyle;rounded=0;orthogonalLoop=1;jettySize=auto;html=1;exitX=0.5;exitY=1;exitDx=0;exitDy=0;entryX=0.5;entryY=0;entryDx=0;entryDy=0;strokeWidth=2;endArrow=open;endFill=0;" edge="1" parent="1" source="mxtANP7VA7hPZhCvdDns-7" target="BD446DF0MScjFqqRYx8H-11">
          <mxGeometry relative="1" as="geometry" />
        </mxCell>
        <mxCell id="mxtANP7VA7hPZhCvdDns-7" value="Baixar comprovante" style="rounded=1;whiteSpace=wrap;html=1;arcSize=40;fontStyle=1;strokeWidth=2;rotation=0;container=0;" vertex="1" parent="1">
          <mxGeometry x="197.25" y="565" width="110" height="40" as="geometry" />
        </mxCell>
        <mxCell id="BD446DF0MScjFqqRYx8H-5" value="[Não]" style="text;html=1;align=center;verticalAlign=middle;whiteSpace=wrap;rounded=0;container=0;strokeWidth=2;fontStyle=1" vertex="1" parent="1">
          <mxGeometry x="200" y="359" width="60" height="30" as="geometry" />
        </mxCell>
        <mxCell id="mxtANP7VA7hPZhCvdDns-12" style="edgeStyle=orthogonalEdgeStyle;rounded=0;orthogonalLoop=1;jettySize=auto;html=1;exitX=1;exitY=0.5;exitDx=0;exitDy=0;entryX=0;entryY=0.5;entryDx=0;entryDy=0;strokeWidth=2;endArrow=open;endFill=0;" edge="1" parent="1" source="BD446DF0MScjFqqRYx8H-11" target="BD446DF0MScjFqqRYx8H-13">
          <mxGeometry relative="1" as="geometry" />
        </mxCell>
        <mxCell id="mxtANP7VA7hPZhCvdDns-13" style="edgeStyle=orthogonalEdgeStyle;rounded=0;orthogonalLoop=1;jettySize=auto;html=1;exitX=0.5;exitY=1;exitDx=0;exitDy=0;entryX=0.5;entryY=0;entryDx=0;entryDy=0;strokeWidth=2;endArrow=open;endFill=0;" edge="1" parent="1" source="BD446DF0MScjFqqRYx8H-11" target="BD446DF0MScjFqqRYx8H-14">
          <mxGeometry relative="1" as="geometry" />
        </mxCell>
        <mxCell id="BD446DF0MScjFqqRYx8H-11" value="" style="rhombus;whiteSpace=wrap;html=1;fontStyle=1;strokeWidth=2;container=0;" vertex="1" parent="1">
          <mxGeometry x="229.75" y="640" width="45" height="40" as="geometry" />
        </mxCell>
        <mxCell id="mxtANP7VA7hPZhCvdDns-14" style="edgeStyle=orthogonalEdgeStyle;rounded=0;orthogonalLoop=1;jettySize=auto;html=1;exitX=0.5;exitY=1;exitDx=0;exitDy=0;entryX=1;entryY=0.5;entryDx=0;entryDy=0;strokeWidth=2;endArrow=open;endFill=0;" edge="1" parent="1" source="BD446DF0MScjFqqRYx8H-13" target="BD446DF0MScjFqqRYx8H-14">
          <mxGeometry relative="1" as="geometry" />
        </mxCell>
        <mxCell id="BD446DF0MScjFqqRYx8H-13" value="Confirmar download" style="rounded=1;whiteSpace=wrap;html=1;arcSize=40;fontStyle=1;strokeWidth=2;rotation=0;container=0;" vertex="1" parent="1">
          <mxGeometry x="495.5" y="565" width="110" height="40" as="geometry" />
        </mxCell>
        <mxCell id="BD446DF0MScjFqqRYx8H-14" value="" style="ellipse;html=1;shape=endState;fillColor=light-dark(#000000,#000000);strokeColor=default;strokeWidth=2;fontStyle=1;container=0;" vertex="1" parent="1">
          <mxGeometry x="237.25" y="720" width="30" height="30" as="geometry" />
        </mxCell>
        <mxCell id="BD446DF0MScjFqqRYx8H-23" style="edgeStyle=orthogonalEdgeStyle;rounded=0;orthogonalLoop=1;jettySize=auto;html=1;entryX=0;entryY=0.5;entryDx=0;entryDy=0;endArrow=none;startFill=0;dashed=1;" edge="1" parent="1" source="BD446DF0MScjFqqRYx8H-21" target="ZOLT3zwWpUyua53DlOfI-28">
          <mxGeometry relative="1" as="geometry" />
        </mxCell>
        <mxCell id="BD446DF0MScjFqqRYx8H-21" value="Logado" style="shape=note;whiteSpace=wrap;html=1;backgroundOutline=1;darkOpacity=0.05;" vertex="1" parent="1">
          <mxGeometry x="107.25" y="106.94" width="90" height="72.62" as="geometry" />
        </mxCell>
        <mxCell id="CyfrhsX2KO5anr8fBp_1-1" value="[Sim]" style="text;html=1;align=center;verticalAlign=middle;whiteSpace=wrap;rounded=0;container=0;strokeWidth=2;fontStyle=1" vertex="1" parent="1">
          <mxGeometry x="272.5" y="450" width="60" height="30" as="geometry" />
        </mxCell>
        <mxCell id="CyfrhsX2KO5anr8fBp_1-2" value="[Sim]" style="text;html=1;align=center;verticalAlign=middle;whiteSpace=wrap;rounded=0;container=0;strokeWidth=2;fontStyle=1" vertex="1" parent="1">
          <mxGeometry x="265" y="320" width="60" height="30" as="geometry" />
        </mxCell>
        <mxCell id="CyfrhsX2KO5anr8fBp_1-3" value="[Não]" style="text;html=1;align=center;verticalAlign=middle;whiteSpace=wrap;rounded=0;container=0;strokeWidth=2;fontStyle=1" vertex="1" parent="1">
          <mxGeometry x="175" y="450" width="60" height="30" as="geometry" />
        </mxCell>
        <mxCell id="CyfrhsX2KO5anr8fBp_1-5" value="[Não]" style="text;html=1;align=center;verticalAlign=middle;whiteSpace=wrap;rounded=0;container=0;strokeWidth=2;fontStyle=1" vertex="1" parent="1">
          <mxGeometry x="197.25" y="679" width="60" height="30" as="geometry" />
        </mxCell>
        <mxCell id="CyfrhsX2KO5anr8fBp_1-6" value="[Sim]" style="text;html=1;align=center;verticalAlign=middle;whiteSpace=wrap;rounded=0;container=0;strokeWidth=2;fontStyle=1" vertex="1" parent="1">
          <mxGeometry x="272.5" y="630" width="60" height="30" as="geometry" />
        </mxCell>
      </root>
    </mxGraphModel>
  </diagram>
</mxfile>
